# Blender 3.2.1
# www.blender.org
mtllib untitled.mtl
o Cube
v -1.471342 -0.022768 0.913583
v -0.618124 1.611995 0.139265
v -1.164540 -0.997282 -0.805776
v -0.311322 0.637481 -1.580094
v 0.311322 -0.637481 1.580094
v 1.164540 0.997282 0.805776
v 0.618124 -1.611995 -0.139265
v 1.471342 0.022768 -0.913583
vn -0.8913 0.3074 -0.3333
vn 0.1534 -0.4873 -0.8597
vn 0.8913 -0.3074 0.3333
vn -0.1534 0.4873 0.8597
vn -0.4266 -0.8174 0.3872
vn 0.4266 0.8174 -0.3872
vt 0.375000 0.000000
vt 0.375000 1.000000
vt 0.125000 0.750000
vt 0.625000 0.000000
vt 0.625000 1.000000
vt 0.875000 0.750000
vt 0.375000 0.250000
vt 0.125000 0.500000
vt 0.625000 0.250000
vt 0.875000 0.500000
vt 0.375000 0.750000
vt 0.625000 0.750000
vt 0.375000 0.500000
vt 0.625000 0.500000
s 0
f 1/1/1 2/4/1 4/9/1 3/7/1
f 3/7/2 4/9/2 8/14/2 7/13/2
f 7/13/3 8/14/3 6/12/3 5/11/3
f 5/11/4 6/12/4 2/5/4 1/2/4
f 3/8/5 7/13/5 5/11/5 1/3/5
f 8/14/6 4/10/6 2/6/6 6/12/6
